<?xml version="1.0" encoding="UTF-8"?>
<svg xmlns="http://www.w3.org/2000/svg" xmlns:xlink="http://www.w3.org/1999/xlink" width="36px" height="36px" viewBox="0 0 36 36" version="1.1">
<g id="surface1">
<path style=" stroke:none;fill-rule:nonzero;fill:rgb(99.215686%,74.901962%,0%);fill-opacity:1;" d="M 3.464844 4.851562 C 3.621094 4.984375 3.691406 5.195312 3.644531 5.402344 C 3.574219 5.734375 3.574219 6.078125 3.644531 6.410156 C 3.691406 6.617188 3.621094 6.828125 3.464844 6.960938 L 3.121094 7.253906 C 3.1875 7.390625 3.261719 7.519531 3.347656 7.644531 L 3.769531 7.492188 C 3.96875 7.421875 4.1875 7.464844 4.339844 7.609375 C 4.589844 7.839844 4.886719 8.011719 5.214844 8.117188 C 5.414062 8.179688 5.5625 8.34375 5.597656 8.550781 L 5.683594 8.992188 C 5.828125 9.007812 5.984375 9.007812 6.128906 8.992188 L 6.214844 8.550781 C 6.25 8.34375 6.398438 8.179688 6.597656 8.117188 C 6.925781 8.011719 7.222656 7.839844 7.472656 7.609375 C 7.625 7.464844 7.84375 7.421875 8.042969 7.492188 L 8.464844 7.644531 C 8.550781 7.519531 8.625 7.390625 8.691406 7.253906 L 8.347656 6.960938 C 8.191406 6.828125 8.121094 6.617188 8.167969 6.410156 C 8.238281 6.078125 8.238281 5.734375 8.167969 5.402344 C 8.121094 5.195312 8.191406 4.984375 8.347656 4.851562 L 8.691406 4.558594 C 8.625 4.421875 8.550781 4.292969 8.464844 4.167969 L 8.042969 4.320312 C 7.84375 4.390625 7.625 4.347656 7.472656 4.203125 C 7.222656 3.972656 6.925781 3.800781 6.597656 3.695312 C 6.398438 3.632812 6.25 3.46875 6.214844 3.261719 L 6.128906 2.824219 C 5.984375 2.808594 5.828125 2.808594 5.683594 2.824219 L 5.597656 3.261719 C 5.5625 3.46875 5.414062 3.632812 5.214844 3.695312 C 4.886719 3.800781 4.589844 3.972656 4.339844 4.203125 C 4.1875 4.347656 3.96875 4.390625 3.769531 4.320312 L 3.347656 4.167969 C 3.261719 4.292969 3.1875 4.421875 3.121094 4.558594 Z M 5.90625 4.089844 C 6.910156 4.089844 7.722656 4.902344 7.722656 5.90625 C 7.722656 6.910156 6.910156 7.722656 5.90625 7.722656 C 4.902344 7.722656 4.089844 6.910156 4.089844 5.90625 C 4.089844 4.902344 4.902344 4.089844 5.90625 4.089844 Z M 5.90625 4.089844 "/>
<path style=" stroke:none;fill-rule:nonzero;fill:rgb(0%,0%,0%);fill-opacity:1;" d="M 1.910156 7.273438 C 2.089844 7.792969 2.363281 8.265625 2.726562 8.679688 C 2.875 8.851562 3.121094 8.917969 3.335938 8.839844 L 3.839844 8.660156 C 4.0625 8.824219 4.300781 8.957031 4.546875 9.066406 L 4.648438 9.597656 C 4.683594 9.824219 4.863281 10 5.089844 10.042969 C 5.628906 10.152344 6.175781 10.152344 6.714844 10.042969 C 6.941406 10 7.117188 9.824219 7.160156 9.597656 L 7.253906 9.066406 C 7.507812 8.957031 7.746094 8.824219 7.960938 8.660156 L 8.46875 8.839844 C 8.683594 8.917969 8.929688 8.851562 9.082031 8.679688 C 9.4375 8.265625 9.714844 7.792969 9.890625 7.273438 C 9.96875 7.054688 9.902344 6.808594 9.722656 6.664062 L 9.316406 6.316406 C 9.34375 6.039062 9.34375 5.769531 9.316406 5.496094 L 9.722656 5.148438 C 9.902344 5.003906 9.96875 4.757812 9.890625 4.539062 C 9.714844 4.019531 9.4375 3.546875 9.082031 3.132812 C 8.929688 2.960938 8.6875 2.894531 8.46875 2.972656 L 7.960938 3.152344 C 7.746094 2.988281 7.511719 2.855469 7.257812 2.746094 L 7.160156 2.214844 C 7.117188 1.988281 6.941406 1.8125 6.714844 1.769531 C 6.175781 1.660156 5.628906 1.660156 5.089844 1.769531 C 4.863281 1.8125 4.6875 1.988281 4.648438 2.214844 L 4.546875 2.746094 C 4.300781 2.855469 4.0625 2.988281 3.839844 3.152344 L 3.335938 2.972656 C 3.121094 2.894531 2.875 2.960938 2.726562 3.132812 C 2.363281 3.546875 2.089844 4.019531 1.910156 4.539062 C 1.839844 4.757812 1.90625 5.003906 2.082031 5.148438 L 2.492188 5.496094 C 2.457031 5.773438 2.457031 6.042969 2.492188 6.316406 L 2.082031 6.664062 C 1.90625 6.808594 1.839844 7.054688 1.910156 7.273438 Z M 3.769531 4.320312 C 3.964844 4.390625 4.183594 4.347656 4.335938 4.203125 C 4.585938 3.972656 4.886719 3.800781 5.214844 3.695312 C 5.410156 3.636719 5.5625 3.46875 5.597656 3.261719 L 5.683594 2.820312 C 5.828125 2.804688 5.984375 2.804688 6.128906 2.820312 L 6.214844 3.261719 C 6.25 3.46875 6.398438 3.632812 6.597656 3.695312 C 6.925781 3.800781 7.222656 3.972656 7.472656 4.203125 C 7.625 4.347656 7.84375 4.390625 8.042969 4.320312 L 8.464844 4.167969 C 8.550781 4.292969 8.625 4.421875 8.691406 4.558594 L 8.347656 4.851562 C 8.191406 4.984375 8.121094 5.195312 8.167969 5.402344 C 8.238281 5.734375 8.238281 6.078125 8.167969 6.410156 C 8.121094 6.617188 8.191406 6.828125 8.347656 6.960938 L 8.691406 7.253906 C 8.625 7.390625 8.550781 7.519531 8.464844 7.644531 L 8.042969 7.492188 C 7.84375 7.421875 7.625 7.464844 7.472656 7.609375 C 7.222656 7.839844 6.925781 8.011719 6.597656 8.117188 C 6.398438 8.179688 6.25 8.34375 6.214844 8.550781 L 6.128906 8.992188 C 5.984375 9.007812 5.828125 9.007812 5.683594 8.992188 L 5.597656 8.550781 C 5.5625 8.34375 5.414062 8.179688 5.214844 8.117188 C 4.886719 8.011719 4.589844 7.839844 4.339844 7.609375 C 4.1875 7.464844 3.96875 7.421875 3.769531 7.492188 L 3.347656 7.644531 C 3.261719 7.519531 3.1875 7.390625 3.121094 7.253906 L 3.464844 6.960938 C 3.621094 6.828125 3.691406 6.617188 3.644531 6.410156 C 3.574219 6.078125 3.574219 5.734375 3.644531 5.402344 C 3.691406 5.195312 3.621094 4.984375 3.464844 4.851562 L 3.121094 4.558594 C 3.1875 4.417969 3.261719 4.292969 3.347656 4.164062 Z M 3.769531 4.320312 "/>
<path style=" stroke:none;fill-rule:nonzero;fill:rgb(0%,0%,0%);fill-opacity:1;" d="M 5.90625 7.722656 C 6.910156 7.722656 7.722656 6.910156 7.722656 5.90625 C 7.722656 4.902344 6.910156 4.089844 5.90625 4.089844 C 4.902344 4.089844 4.089844 4.902344 4.089844 5.90625 C 4.089844 6.910156 4.902344 7.722656 5.90625 7.722656 Z M 5.90625 5.214844 C 6.289062 5.214844 6.597656 5.523438 6.597656 5.90625 C 6.597656 6.289062 6.289062 6.597656 5.90625 6.597656 C 5.523438 6.597656 5.214844 6.289062 5.214844 5.90625 C 5.214844 5.523438 5.523438 5.214844 5.90625 5.214844 Z M 5.90625 5.214844 "/>
<path style=" stroke:none;fill-rule:nonzero;fill:rgb(84.705883%,84.705883%,98.823529%);fill-opacity:1;" d="M 11.8125 16.160156 L 19.761719 12.976562 C 19.933594 12.910156 20.128906 12.925781 20.285156 13.035156 C 20.4375 13.136719 20.53125 13.316406 20.53125 13.5 L 20.53125 19.6875 L 29.25 19.6875 C 29.402344 19.6875 29.542969 19.746094 29.644531 19.855469 L 33.1875 23.390625 L 33.1875 2.8125 L 11.8125 2.8125 Z M 22.5 3.9375 L 31.5 3.9375 C 31.808594 3.9375 32.0625 4.191406 32.0625 4.5 C 32.0625 4.808594 31.808594 5.0625 31.5 5.0625 L 22.5 5.0625 C 22.191406 5.0625 21.9375 4.808594 21.9375 4.5 C 21.9375 4.191406 22.191406 3.9375 22.5 3.9375 Z M 22.5 6.1875 L 31.5 6.1875 C 31.808594 6.1875 32.0625 6.441406 32.0625 6.75 C 32.0625 7.058594 31.808594 7.3125 31.5 7.3125 L 22.5 7.3125 C 22.191406 7.3125 21.9375 7.058594 21.9375 6.75 C 21.9375 6.441406 22.191406 6.1875 22.5 6.1875 Z M 22.5 8.4375 L 31.5 8.4375 C 31.808594 8.4375 32.0625 8.691406 32.0625 9 C 32.0625 9.308594 31.808594 9.5625 31.5 9.5625 L 22.5 9.5625 C 22.191406 9.5625 21.9375 9.308594 21.9375 9 C 21.9375 8.691406 22.191406 8.4375 22.5 8.4375 Z M 22.5 10.6875 L 31.5 10.6875 C 31.808594 10.6875 32.0625 10.941406 32.0625 11.25 C 32.0625 11.558594 31.808594 11.8125 31.5 11.8125 L 22.5 11.8125 C 22.191406 11.8125 21.9375 11.558594 21.9375 11.25 C 21.9375 10.941406 22.191406 10.6875 22.5 10.6875 Z M 22.5 12.9375 L 31.5 12.9375 C 31.808594 12.9375 32.0625 13.191406 32.0625 13.5 C 32.0625 13.808594 31.808594 14.0625 31.5 14.0625 L 22.5 14.0625 C 22.191406 14.0625 21.9375 13.808594 21.9375 13.5 C 21.9375 13.191406 22.191406 12.9375 22.5 12.9375 Z M 22.5 15.1875 L 31.5 15.1875 C 31.808594 15.1875 32.0625 15.441406 32.0625 15.75 C 32.0625 16.058594 31.808594 16.3125 31.5 16.3125 L 22.5 16.3125 C 22.191406 16.3125 21.9375 16.058594 21.9375 15.75 C 21.9375 15.441406 22.191406 15.1875 22.5 15.1875 Z M 12.9375 4.5 C 12.9375 4.191406 13.191406 3.9375 13.5 3.9375 L 20.25 3.9375 C 20.558594 3.9375 20.8125 4.191406 20.8125 4.5 L 20.8125 11.25 C 20.8125 11.558594 20.558594 11.8125 20.25 11.8125 L 13.5 11.8125 C 13.191406 11.8125 12.9375 11.558594 12.9375 11.25 Z M 12.9375 4.5 "/>
<path style=" stroke:none;fill-rule:nonzero;fill:rgb(29.411766%,72.549021%,92.54902%);fill-opacity:1;" d="M 14.0625 5.0625 L 19.6875 5.0625 L 19.6875 10.6875 L 14.0625 10.6875 Z M 14.0625 5.0625 "/>
<path style=" stroke:none;fill-rule:nonzero;fill:rgb(0%,0%,0%);fill-opacity:1;" d="M 13.5 11.8125 L 20.25 11.8125 C 20.558594 11.8125 20.8125 11.558594 20.8125 11.25 L 20.8125 4.5 C 20.8125 4.191406 20.558594 3.9375 20.25 3.9375 L 13.5 3.9375 C 13.191406 3.9375 12.9375 4.191406 12.9375 4.5 L 12.9375 11.25 C 12.9375 11.558594 13.191406 11.8125 13.5 11.8125 Z M 14.0625 5.0625 L 19.6875 5.0625 L 19.6875 10.6875 L 14.0625 10.6875 Z M 14.0625 5.0625 "/>
<path style=" stroke:none;fill-rule:nonzero;fill:rgb(0%,0%,0%);fill-opacity:1;" d="M 22.5 5.0625 L 31.5 5.0625 C 31.808594 5.0625 32.0625 4.808594 32.0625 4.5 C 32.0625 4.191406 31.808594 3.9375 31.5 3.9375 L 22.5 3.9375 C 22.191406 3.9375 21.9375 4.191406 21.9375 4.5 C 21.9375 4.808594 22.191406 5.0625 22.5 5.0625 Z M 22.5 5.0625 "/>
<path style=" stroke:none;fill-rule:nonzero;fill:rgb(0%,0%,0%);fill-opacity:1;" d="M 22.5 7.3125 L 31.5 7.3125 C 31.808594 7.3125 32.0625 7.058594 32.0625 6.75 C 32.0625 6.441406 31.808594 6.1875 31.5 6.1875 L 22.5 6.1875 C 22.191406 6.1875 21.9375 6.441406 21.9375 6.75 C 21.9375 7.058594 22.191406 7.3125 22.5 7.3125 Z M 22.5 7.3125 "/>
<path style=" stroke:none;fill-rule:nonzero;fill:rgb(0%,0%,0%);fill-opacity:1;" d="M 22.5 9.5625 L 31.5 9.5625 C 31.808594 9.5625 32.0625 9.308594 32.0625 9 C 32.0625 8.691406 31.808594 8.4375 31.5 8.4375 L 22.5 8.4375 C 22.191406 8.4375 21.9375 8.691406 21.9375 9 C 21.9375 9.308594 22.191406 9.5625 22.5 9.5625 Z M 22.5 9.5625 "/>
<path style=" stroke:none;fill-rule:nonzero;fill:rgb(0%,0%,0%);fill-opacity:1;" d="M 22.5 11.8125 L 31.5 11.8125 C 31.808594 11.8125 32.0625 11.558594 32.0625 11.25 C 32.0625 10.941406 31.808594 10.6875 31.5 10.6875 L 22.5 10.6875 C 22.191406 10.6875 21.9375 10.941406 21.9375 11.25 C 21.9375 11.558594 22.191406 11.8125 22.5 11.8125 Z M 22.5 11.8125 "/>
<path style=" stroke:none;fill-rule:nonzero;fill:rgb(0%,0%,0%);fill-opacity:1;" d="M 22.5 14.0625 L 31.5 14.0625 C 31.808594 14.0625 32.0625 13.808594 32.0625 13.5 C 32.0625 13.191406 31.808594 12.9375 31.5 12.9375 L 22.5 12.9375 C 22.191406 12.9375 21.9375 13.191406 21.9375 13.5 C 21.9375 13.808594 22.191406 14.0625 22.5 14.0625 Z M 22.5 14.0625 "/>
<path style=" stroke:none;fill-rule:nonzero;fill:rgb(0%,0%,0%);fill-opacity:1;" d="M 22.5 16.3125 L 31.5 16.3125 C 31.808594 16.3125 32.0625 16.058594 32.0625 15.75 C 32.0625 15.441406 31.808594 15.1875 31.5 15.1875 L 22.5 15.1875 C 22.191406 15.1875 21.9375 15.441406 21.9375 15.75 C 21.9375 16.058594 22.191406 16.3125 22.5 16.3125 Z M 22.5 16.3125 "/>
<path style=" stroke:none;fill-rule:nonzero;fill:rgb(99.215686%,57.254905%,0%);fill-opacity:1;" d="M 18.5625 30.050781 L 19.40625 30.386719 L 19.40625 14.332031 L 18.5625 14.667969 Z M 18.5625 30.050781 "/>
<path style=" stroke:none;fill-rule:nonzero;fill:rgb(99.215686%,57.254905%,0%);fill-opacity:1;" d="M 6.046875 25.59375 L 6.75 25.59375 L 6.75 19.125 L 6.046875 19.125 C 4.261719 19.125 2.8125 20.574219 2.8125 22.359375 C 2.8125 24.144531 4.261719 25.59375 6.046875 25.59375 Z M 6.046875 25.59375 "/>
<path style=" stroke:none;fill-rule:nonzero;fill:rgb(99.215686%,57.254905%,0%);fill-opacity:1;" d="M 7.875 33.1875 L 9.28125 33.1875 L 9.28125 27.550781 L 7.875 26.988281 Z M 7.875 33.1875 "/>
<path style=" stroke:none;fill-rule:nonzero;fill:rgb(99.215686%,74.901962%,0%);fill-opacity:1;" d="M 17.4375 15.117188 L 7.875 18.941406 L 7.875 25.777344 L 17.4375 29.601562 Z M 17.4375 15.117188 "/>
<path style=" stroke:none;fill-rule:nonzero;fill:rgb(0%,0%,0%);fill-opacity:1;" d="M 33.75 1.6875 L 11.25 1.6875 C 10.941406 1.6875 10.6875 1.941406 10.6875 2.25 L 10.6875 16.605469 L 7.203125 18 L 6.046875 18 C 3.640625 18 1.6875 19.953125 1.6875 22.359375 C 1.6875 24.765625 3.640625 26.71875 6.046875 26.71875 L 6.75 26.71875 L 6.75 33.75 C 6.75 34.058594 7.003906 34.3125 7.3125 34.3125 L 9.84375 34.3125 C 10.152344 34.3125 10.40625 34.058594 10.40625 33.75 L 10.40625 27.996094 L 19.761719 31.742188 C 19.933594 31.808594 20.128906 31.792969 20.285156 31.683594 C 20.4375 31.582031 20.53125 31.402344 20.53125 31.21875 L 20.53125 20.8125 L 29.015625 20.8125 L 33.355469 25.144531 C 33.511719 25.308594 33.757812 25.355469 33.96875 25.269531 C 34.175781 25.183594 34.3125 24.976562 34.3125 24.75 L 34.3125 2.25 C 34.3125 1.941406 34.058594 1.6875 33.75 1.6875 Z M 33.1875 23.390625 L 29.644531 19.855469 C 29.542969 19.746094 29.402344 19.6875 29.25 19.6875 L 20.53125 19.6875 L 20.53125 13.5 C 20.53125 13.316406 20.4375 13.136719 20.285156 13.035156 C 20.128906 12.925781 19.933594 12.910156 19.761719 12.976562 L 11.8125 16.160156 L 11.8125 2.8125 L 33.1875 2.8125 Z M 19.40625 30.386719 L 18.5625 30.050781 L 18.5625 14.667969 L 19.40625 14.332031 Z M 9.28125 33.1875 L 7.875 33.1875 L 7.875 26.988281 L 9.28125 27.550781 Z M 6.046875 19.125 L 6.75 19.125 L 6.75 25.59375 L 6.046875 25.59375 C 4.261719 25.59375 2.8125 24.144531 2.8125 22.359375 C 2.8125 20.574219 4.261719 19.125 6.046875 19.125 Z M 7.875 25.777344 L 7.875 18.941406 L 17.4375 15.117188 L 17.4375 29.601562 Z M 7.875 25.777344 "/>
</g>
</svg>
