<?xml version="1.0" encoding="UTF-8"?>
<svg xmlns="http://www.w3.org/2000/svg" xmlns:xlink="http://www.w3.org/1999/xlink" width="34px" height="34px" viewBox="0 0 34 34" version="1.1">
<g id="surface1">
<path style=" stroke:none;fill-rule:nonzero;fill:rgb(16.470589%,18.431373%,38.82353%);fill-opacity:1;" d="M 27.320312 25.320312 C 26.222656 23.417969 24.230469 22.828125 23.140625 22.640625 C 22.621094 22.558594 22.167969 22.390625 21.808594 22.152344 C 21.0625 21.660156 20.773438 21.054688 20.660156 20.628906 C 21.722656 19.394531 22.648438 17.382812 22.53125 14.132812 C 23.222656 12.75 23.003906 11.230469 22.992188 11.152344 C 22.964844 10.992188 22.871094 10.851562 22.730469 10.773438 C 22.589844 10.695312 22.421875 10.691406 22.273438 10.757812 C 21.605469 11.050781 20.605469 10.664062 20.265625 10.480469 C 15.808594 8.273438 13.503906 10.796875 12.996094 11.464844 C 12.511719 11.691406 11.417969 12.527344 11.535156 15.375 C 11.535156 15.453125 11.554688 16.339844 11.847656 17.46875 C 12.140625 18.59375 12.691406 19.964844 13.765625 21.015625 C 13.648438 21.410156 13.367188 22.019531 12.648438 22.503906 C 12.292969 22.738281 11.851562 22.902344 11.34375 22.992188 C 10.476562 23.136719 8.355469 23.683594 7.226562 25.671875 C 6.816406 26.386719 6.601562 27.246094 6.601562 28.171875 L 6.601562 33.011719 C 6.601562 33.554688 7.042969 34 7.585938 34 L 26.972656 34 C 27.511719 34 27.953125 33.554688 27.953125 33.011719 L 27.953125 27.816406 C 27.953125 26.890625 27.738281 26.03125 27.320312 25.320312 Z M 21.175781 22.960938 L 19.3125 25.617188 L 18.507812 24.324219 L 20.65625 22.535156 C 20.804688 22.683594 20.980469 22.824219 21.175781 22.960938 Z M 17.070312 26.710938 L 17.488281 26.710938 L 18.046875 30.460938 L 17.277344 31.117188 L 16.511719 30.460938 Z M 16.765625 24.980469 L 17.703125 24.980469 L 17.765625 25.074219 L 17.5625 25.679688 L 16.996094 25.679688 Z M 17.503906 23.820312 C 17.457031 23.859375 17.425781 23.902344 17.398438 23.949219 L 17.015625 23.949219 C 16.988281 23.902344 16.953125 23.855469 16.910156 23.820312 L 14.539062 21.84375 C 14.5625 21.796875 14.59375 21.742188 14.609375 21.695312 C 14.648438 21.722656 14.679688 21.75 14.714844 21.769531 C 15.414062 22.207031 16.21875 22.4375 17.042969 22.441406 C 17.96875 22.441406 18.890625 22.140625 19.671875 21.558594 C 19.730469 21.511719 19.789062 21.460938 19.851562 21.414062 C 19.894531 21.515625 19.949219 21.621094 20.011719 21.726562 Z M 12.5625 15.359375 C 12.5625 15.351562 12.558594 15.351562 12.558594 15.347656 C 12.558594 15.347656 12.5625 15.347656 12.5625 15.34375 C 12.453125 12.765625 13.453125 12.390625 13.453125 12.390625 C 13.578125 12.355469 13.691406 12.273438 13.765625 12.160156 C 13.832031 12.042969 15.601562 9.316406 19.792969 11.394531 C 19.847656 11.421875 20.921875 11.992188 22.003906 11.878906 C 22 12.523438 21.867188 13.585938 21.144531 14.34375 C 20.425781 15.097656 19.257812 15.40625 17.683594 15.253906 C 17.1875 15.1875 15.816406 14.847656 15.4375 14.074219 C 15.367188 13.921875 15.222656 13.8125 15.054688 13.792969 C 14.886719 13.765625 14.714844 13.824219 14.597656 13.945312 C 14.582031 13.964844 14.25 14.328125 14.097656 14.976562 L 13.773438 14.738281 C 13.574219 14.582031 13.292969 14.597656 13.109375 14.773438 C 13.089844 14.796875 12.855469 15.035156 12.570312 15.507812 C 12.5625 15.417969 12.5625 15.359375 12.5625 15.359375 Z M 12.894531 17.355469 C 13.101562 16.65625 13.367188 16.15625 13.5625 15.863281 L 14.269531 16.394531 C 14.4375 16.519531 14.664062 16.53125 14.84375 16.425781 C 15.023438 16.316406 15.121094 16.113281 15.085938 15.90625 C 15.050781 15.65625 15.0625 15.445312 15.09375 15.261719 C 15.996094 16.050781 17.367188 16.25 17.570312 16.277344 C 19.238281 16.4375 20.554688 16.148438 21.496094 15.410156 C 21.320312 18.390625 20.113281 19.9375 19.054688 20.734375 C 17.945312 21.570312 16.433594 21.632812 15.257812 20.894531 C 13.898438 20.050781 13.226562 18.574219 12.894531 17.355469 Z M 13.964844 22.710938 L 15.90625 24.324219 L 15.101562 25.617188 L 13.414062 23.210938 C 13.625 23.046875 13.8125 22.882812 13.964844 22.710938 Z M 26.921875 32.96875 L 7.632812 32.96875 L 7.632812 28.171875 C 7.632812 27.429688 7.796875 26.738281 8.117188 26.179688 C 9.03125 24.582031 10.796875 24.128906 11.511719 24.007812 C 11.875 23.945312 12.207031 23.847656 12.515625 23.71875 L 14.703125 26.84375 C 14.800781 26.980469 14.960938 27.066406 15.125 27.066406 L 15.140625 27.066406 C 15.316406 27.0625 15.476562 26.972656 15.566406 26.824219 L 16.039062 26.0625 L 16.097656 26.242188 L 15.453125 30.589844 C 15.425781 30.769531 15.492188 30.945312 15.628906 31.058594 L 16.945312 32.183594 C 16.96875 32.203125 17 32.214844 17.027344 32.230469 C 17.046875 32.242188 17.0625 32.257812 17.085938 32.261719 C 17.148438 32.289062 17.210938 32.304688 17.277344 32.304688 L 17.28125 32.304688 C 17.34375 32.304688 17.410156 32.289062 17.472656 32.261719 C 17.492188 32.257812 17.511719 32.242188 17.53125 32.230469 C 17.558594 32.214844 17.589844 32.203125 17.609375 32.183594 L 18.929688 31.058594 C 19.066406 30.945312 19.132812 30.765625 19.105469 30.589844 L 18.460938 26.242188 L 18.472656 26.21875 L 18.847656 26.824219 C 18.9375 26.972656 19.097656 27.0625 19.273438 27.066406 L 19.285156 27.066406 C 19.453125 27.066406 19.613281 26.980469 19.710938 26.84375 L 22.101562 23.433594 C 22.375 23.527344 22.664062 23.609375 22.972656 23.65625 C 23.878906 23.8125 25.542969 24.300781 26.429688 25.839844 C 26.753906 26.390625 26.921875 27.078125 26.921875 27.816406 Z M 26.921875 32.96875 "/>
<path style=" stroke:none;fill-rule:nonzero;fill:rgb(92.941177%,92.54902%,92.941177%);fill-opacity:1;" d="M 17.765625 25.074219 L 17.5625 25.679688 L 16.996094 25.679688 L 16.765625 24.980469 L 17.703125 24.980469 Z M 18.046875 30.460938 L 17.277344 31.117188 L 16.511719 30.460938 L 17.070312 26.710938 L 17.488281 26.710938 Z M 15.90625 24.324219 L 15.101562 25.617188 L 13.414062 23.210938 C 13.625 23.046875 13.8125 22.882812 13.964844 22.710938 Z M 21.175781 22.960938 L 19.3125 25.617188 L 18.507812 24.324219 L 20.65625 22.535156 C 20.804688 22.683594 20.980469 22.824219 21.175781 22.960938 Z M 21.175781 22.960938 "/>
<path style=" stroke:none;fill-rule:nonzero;fill:rgb(32.549021%,74.509805%,61.960787%);fill-opacity:1;" d="M 26.921875 27.816406 L 26.921875 32.96875 L 7.632812 32.96875 L 7.632812 28.171875 C 7.632812 27.429688 7.796875 26.738281 8.117188 26.179688 C 9.03125 24.582031 10.796875 24.128906 11.511719 24.007812 C 11.875 23.945312 12.207031 23.847656 12.515625 23.71875 L 14.703125 26.84375 C 14.800781 26.980469 14.960938 27.066406 15.125 27.066406 L 15.140625 27.066406 C 15.316406 27.0625 15.476562 26.972656 15.566406 26.824219 L 16.039062 26.0625 L 16.097656 26.242188 L 15.453125 30.589844 C 15.425781 30.769531 15.492188 30.945312 15.628906 31.058594 L 16.945312 32.183594 C 16.96875 32.203125 17 32.214844 17.027344 32.230469 C 17.046875 32.242188 17.0625 32.257812 17.085938 32.261719 C 17.148438 32.289062 17.210938 32.304688 17.277344 32.304688 L 17.28125 32.304688 C 17.34375 32.304688 17.410156 32.289062 17.472656 32.261719 C 17.492188 32.257812 17.511719 32.242188 17.53125 32.230469 C 17.558594 32.214844 17.589844 32.203125 17.609375 32.183594 L 18.929688 31.058594 C 19.066406 30.945312 19.132812 30.765625 19.105469 30.589844 L 18.460938 26.242188 L 18.472656 26.21875 L 18.847656 26.824219 C 18.9375 26.972656 19.097656 27.0625 19.273438 27.066406 L 19.285156 27.066406 C 19.453125 27.066406 19.613281 26.980469 19.710938 26.84375 L 22.101562 23.433594 C 22.375 23.527344 22.664062 23.609375 22.972656 23.65625 C 23.878906 23.8125 25.542969 24.300781 26.429688 25.839844 C 26.753906 26.390625 26.921875 27.078125 26.921875 27.816406 Z M 26.921875 27.816406 "/>
<path style=" stroke:none;fill-rule:nonzero;fill:rgb(100%,89.411765%,66.666669%);fill-opacity:1;" d="M 20.011719 21.726562 L 17.503906 23.820312 C 17.457031 23.859375 17.425781 23.902344 17.398438 23.949219 L 17.015625 23.949219 C 16.988281 23.902344 16.953125 23.855469 16.910156 23.820312 L 14.539062 21.84375 C 14.5625 21.796875 14.59375 21.742188 14.609375 21.695312 C 14.648438 21.722656 14.679688 21.75 14.714844 21.769531 C 15.414062 22.207031 16.21875 22.4375 17.042969 22.441406 C 17.96875 22.441406 18.890625 22.140625 19.671875 21.558594 C 19.730469 21.511719 19.789062 21.460938 19.851562 21.414062 C 19.894531 21.515625 19.949219 21.621094 20.011719 21.726562 Z M 20.011719 21.726562 "/>
<path style=" stroke:none;fill-rule:nonzero;fill:rgb(100%,89.411765%,66.666669%);fill-opacity:1;" d="M 21.496094 15.410156 C 21.320312 18.390625 20.113281 19.9375 19.054688 20.734375 C 17.945312 21.570312 16.433594 21.632812 15.257812 20.894531 C 13.898438 20.050781 13.226562 18.574219 12.894531 17.355469 C 13.101562 16.65625 13.367188 16.15625 13.5625 15.863281 L 14.269531 16.394531 C 14.4375 16.519531 14.664062 16.53125 14.84375 16.425781 C 15.023438 16.316406 15.121094 16.113281 15.085938 15.90625 C 15.050781 15.65625 15.0625 15.445312 15.09375 15.261719 C 15.996094 16.050781 17.367188 16.25 17.570312 16.277344 C 19.238281 16.4375 20.554688 16.148438 21.496094 15.410156 Z M 21.496094 15.410156 "/>
<path style=" stroke:none;fill-rule:nonzero;fill:rgb(30.588236%,73.725492%,89.803922%);fill-opacity:1;" d="M 22.003906 11.878906 C 22 12.523438 21.867188 13.585938 21.144531 14.34375 C 20.425781 15.097656 19.257812 15.40625 17.683594 15.253906 C 17.1875 15.1875 15.816406 14.847656 15.4375 14.074219 C 15.367188 13.921875 15.222656 13.8125 15.054688 13.792969 C 14.886719 13.765625 14.714844 13.824219 14.597656 13.945312 C 14.582031 13.964844 14.25 14.328125 14.097656 14.976562 L 13.773438 14.738281 C 13.574219 14.582031 13.292969 14.597656 13.109375 14.773438 C 13.089844 14.796875 12.855469 15.035156 12.570312 15.507812 C 12.5625 15.417969 12.5625 15.359375 12.5625 15.359375 C 12.5625 15.351562 12.558594 15.351562 12.558594 15.347656 C 12.558594 15.347656 12.5625 15.347656 12.5625 15.34375 C 12.453125 12.765625 13.453125 12.390625 13.453125 12.390625 C 13.578125 12.355469 13.691406 12.273438 13.765625 12.160156 C 13.832031 12.042969 15.601562 9.316406 19.792969 11.394531 C 19.847656 11.421875 20.921875 11.992188 22.003906 11.878906 Z M 22.003906 11.878906 "/>
<path style=" stroke:none;fill-rule:nonzero;fill:rgb(16.470589%,18.431373%,38.82353%);fill-opacity:1;" d="M 15.757812 3.835938 L 14.902344 3.660156 C 14.863281 3.566406 14.828125 3.464844 14.78125 3.363281 L 15.257812 2.640625 C 15.394531 2.433594 15.367188 2.164062 15.195312 1.992188 L 14.171875 0.972656 C 14 0.796875 13.730469 0.769531 13.527344 0.910156 L 12.84375 1.359375 C 12.730469 1.300781 12.613281 1.253906 12.488281 1.207031 L 12.332031 0.410156 C 12.28125 0.167969 12.070312 -0.00390625 11.824219 0 L 10.386719 0 C 10.140625 0 9.929688 0.171875 9.882812 0.410156 L 9.722656 1.207031 C 9.601562 1.253906 9.484375 1.300781 9.367188 1.359375 L 8.6875 0.910156 C 8.484375 0.769531 8.210938 0.796875 8.039062 0.972656 L 7.019531 1.992188 C 6.84375 2.164062 6.816406 2.433594 6.953125 2.640625 L 7.433594 3.363281 C 7.390625 3.464844 7.347656 3.566406 7.308594 3.660156 L 6.460938 3.835938 C 6.222656 3.882812 6.046875 4.089844 6.046875 4.339844 L 6.046875 5.78125 C 6.046875 6.023438 6.222656 6.238281 6.460938 6.285156 L 7.308594 6.453125 C 7.347656 6.554688 7.390625 6.65625 7.433594 6.757812 L 6.953125 7.480469 C 6.816406 7.683594 6.84375 7.953125 7.019531 8.128906 L 8.039062 9.148438 C 8.214844 9.324219 8.484375 9.351562 8.6875 9.210938 L 9.367188 8.761719 C 9.484375 8.820312 9.601562 8.867188 9.722656 8.910156 L 9.882812 9.707031 C 9.929688 9.945312 10.140625 10.121094 10.386719 10.121094 L 11.824219 10.121094 C 12.074219 10.121094 12.28125 9.945312 12.332031 9.707031 L 12.488281 8.910156 C 12.613281 8.867188 12.730469 8.8125 12.84375 8.761719 L 13.527344 9.210938 C 13.734375 9.351562 14.003906 9.324219 14.171875 9.148438 L 15.195312 8.128906 C 15.367188 7.953125 15.394531 7.683594 15.257812 7.480469 L 14.78125 6.757812 C 14.828125 6.65625 14.863281 6.554688 14.902344 6.453125 L 15.75 6.285156 C 15.996094 6.238281 16.164062 6.023438 16.164062 5.78125 L 16.164062 4.339844 C 16.164062 4.089844 15.996094 3.882812 15.757812 3.835938 Z M 15.140625 5.355469 L 14.402344 5.503906 C 14.222656 5.539062 14.074219 5.671875 14.015625 5.855469 L 13.964844 6.003906 C 13.925781 6.140625 13.867188 6.285156 13.792969 6.4375 L 13.722656 6.570312 C 13.640625 6.734375 13.660156 6.933594 13.757812 7.082031 L 14.167969 7.699219 L 13.742188 8.121094 L 13.164062 7.734375 C 13.003906 7.628906 12.804688 7.617188 12.632812 7.707031 L 12.5 7.78125 C 12.347656 7.863281 12.1875 7.929688 12.027344 7.984375 L 11.882812 8.027344 C 11.707031 8.085938 11.574219 8.238281 11.539062 8.421875 L 11.40625 9.089844 L 10.8125 9.089844 L 10.671875 8.421875 C 10.636719 8.234375 10.507812 8.085938 10.328125 8.027344 L 10.183594 7.980469 C 10.023438 7.929688 9.867188 7.863281 9.714844 7.78125 L 9.578125 7.707031 C 9.410156 7.617188 9.207031 7.628906 9.046875 7.734375 L 8.46875 8.121094 L 8.042969 7.699219 L 8.457031 7.082031 C 8.558594 6.933594 8.570312 6.734375 8.488281 6.570312 L 8.421875 6.433594 C 8.347656 6.285156 8.289062 6.140625 8.246094 5.996094 L 8.195312 5.855469 C 8.140625 5.675781 7.992188 5.539062 7.808594 5.503906 L 7.078125 5.355469 L 7.078125 4.761719 L 7.808594 4.609375 C 7.992188 4.578125 8.140625 4.445312 8.195312 4.265625 L 8.246094 4.117188 C 8.289062 3.972656 8.347656 3.835938 8.421875 3.679688 L 8.488281 3.546875 C 8.570312 3.382812 8.558594 3.1875 8.457031 3.035156 L 8.042969 2.417969 L 8.46875 1.996094 L 9.046875 2.386719 C 9.207031 2.492188 9.410156 2.503906 9.578125 2.410156 L 9.714844 2.335938 C 9.867188 2.257812 10.023438 2.1875 10.183594 2.136719 L 10.328125 2.085938 C 10.507812 2.03125 10.636719 1.878906 10.671875 1.699219 L 10.8125 1.023438 L 11.40625 1.023438 L 11.539062 1.699219 C 11.574219 1.878906 11.707031 2.03125 11.882812 2.085938 L 12.027344 2.136719 C 12.1875 2.1875 12.347656 2.257812 12.5 2.335938 L 12.636719 2.410156 C 12.804688 2.503906 13.003906 2.492188 13.164062 2.386719 L 13.742188 1.996094 L 14.167969 2.417969 L 13.757812 3.035156 C 13.65625 3.1875 13.644531 3.382812 13.722656 3.546875 L 13.792969 3.679688 C 13.867188 3.835938 13.925781 3.980469 13.964844 4.117188 L 14.015625 4.265625 C 14.074219 4.441406 14.222656 4.578125 14.402344 4.609375 L 15.140625 4.761719 Z M 15.140625 5.355469 "/>
<path style=" stroke:none;fill-rule:nonzero;fill:rgb(100%,85.882354%,48.627451%);fill-opacity:1;" d="M 14.402344 4.609375 C 14.21875 4.574219 14.070312 4.441406 14.015625 4.265625 L 13.964844 4.117188 C 13.925781 3.980469 13.867188 3.835938 13.792969 3.679688 L 13.722656 3.546875 C 13.644531 3.382812 13.65625 3.1875 13.757812 3.035156 L 14.167969 2.417969 L 13.742188 1.996094 L 13.164062 2.386719 C 13.003906 2.492188 12.804688 2.503906 12.636719 2.410156 L 12.5 2.335938 C 12.347656 2.257812 12.1875 2.1875 12.027344 2.136719 L 11.882812 2.085938 C 11.707031 2.027344 11.578125 1.882812 11.539062 1.699219 L 11.40625 1.023438 L 10.8125 1.023438 L 10.671875 1.699219 C 10.636719 1.878906 10.507812 2.03125 10.328125 2.085938 L 10.183594 2.136719 C 10.023438 2.1875 9.867188 2.257812 9.714844 2.335938 L 9.578125 2.410156 C 9.410156 2.503906 9.207031 2.492188 9.046875 2.386719 L 8.46875 1.996094 L 8.042969 2.417969 L 8.457031 3.035156 C 8.558594 3.1875 8.570312 3.382812 8.488281 3.546875 L 8.421875 3.679688 C 8.347656 3.835938 8.289062 3.972656 8.246094 4.117188 L 8.195312 4.265625 C 8.140625 4.445312 7.992188 4.578125 7.808594 4.609375 L 7.078125 4.761719 L 7.078125 5.355469 L 7.808594 5.503906 C 7.988281 5.539062 8.144531 5.671875 8.195312 5.855469 L 8.246094 5.996094 C 8.289062 6.140625 8.347656 6.285156 8.421875 6.433594 L 8.488281 6.570312 C 8.570312 6.734375 8.558594 6.933594 8.457031 7.082031 L 8.042969 7.699219 L 8.46875 8.121094 L 9.046875 7.734375 C 9.207031 7.628906 9.410156 7.617188 9.578125 7.707031 L 9.714844 7.78125 C 9.867188 7.863281 10.023438 7.929688 10.183594 7.980469 L 10.328125 8.027344 C 10.507812 8.085938 10.636719 8.234375 10.671875 8.421875 L 10.8125 9.089844 L 11.40625 9.089844 L 11.539062 8.421875 C 11.574219 8.238281 11.707031 8.085938 11.882812 8.027344 L 12.027344 7.984375 C 12.1875 7.929688 12.347656 7.863281 12.5 7.78125 L 12.632812 7.707031 C 12.804688 7.617188 13.003906 7.628906 13.164062 7.734375 L 13.742188 8.121094 L 14.167969 7.699219 L 13.757812 7.082031 C 13.65625 6.929688 13.644531 6.734375 13.722656 6.570312 L 13.792969 6.4375 C 13.867188 6.285156 13.925781 6.140625 13.964844 6.003906 L 14.015625 5.855469 C 14.074219 5.671875 14.222656 5.539062 14.402344 5.503906 L 15.140625 5.355469 L 15.140625 4.761719 Z M 11.109375 7.433594 C 9.796875 7.433594 8.734375 6.371094 8.734375 5.058594 C 8.734375 3.75 9.796875 2.683594 11.109375 2.683594 C 12.414062 2.683594 13.484375 3.75 13.484375 5.058594 C 13.484375 6.371094 12.414062 7.433594 11.109375 7.433594 Z M 11.109375 7.433594 "/>
<path style=" stroke:none;fill-rule:nonzero;fill:rgb(16.470589%,18.431373%,38.82353%);fill-opacity:1;" d="M 11.109375 2.683594 C 9.796875 2.683594 8.734375 3.75 8.734375 5.058594 C 8.734375 6.371094 9.796875 7.433594 11.109375 7.433594 C 12.414062 7.433594 13.484375 6.371094 13.484375 5.058594 C 13.484375 3.75 12.414062 2.683594 11.109375 2.683594 Z M 11.109375 6.402344 C 10.363281 6.402344 9.765625 5.800781 9.765625 5.058594 C 9.765625 4.320312 10.363281 3.714844 11.109375 3.714844 C 11.847656 3.714844 12.449219 4.316406 12.453125 5.058594 C 12.453125 5.800781 11.847656 6.402344 11.109375 6.402344 Z M 11.109375 6.402344 "/>
</g>
</svg>
