<?xml version="1.0" encoding="UTF-8"?>
<svg xmlns="http://www.w3.org/2000/svg" xmlns:xlink="http://www.w3.org/1999/xlink" width="38px" height="38px" viewBox="0 0 38 38" version="1.1">
<g id="surface1">
<path style="fill:none;stroke-width:2;stroke-linecap:round;stroke-linejoin:round;stroke:rgb(13.725491%,12.156863%,12.54902%);stroke-opacity:1;stroke-miterlimit:4;" d="M 20.072368 24.407895 L 18.75 15.986842 L 11.460526 12.980263 " transform="matrix(0.59375,0,0,0.59375,0,0)"/>
<path style=" stroke:none;fill-rule:nonzero;fill:rgb(100%,73.725492%,0%);fill-opacity:1;" d="M 14.84375 32.953125 C 14.84375 32.132812 14.179688 31.46875 13.359375 31.46875 C 12.539062 31.46875 11.875 32.132812 11.875 32.953125 C 11.875 33.773438 12.539062 34.4375 13.359375 34.4375 C 14.179688 34.4375 14.84375 33.773438 14.84375 32.953125 Z M 14.84375 32.953125 "/>
<path style=" stroke:none;fill-rule:nonzero;fill:rgb(100%,73.725492%,0%);fill-opacity:1;" d="M 28.5 32.953125 C 28.5 32.132812 27.835938 31.46875 27.015625 31.46875 C 26.195312 31.46875 25.53125 32.132812 25.53125 32.953125 C 25.53125 33.773438 26.195312 34.4375 27.015625 34.4375 C 27.835938 34.4375 28.5 33.773438 28.5 32.953125 Z M 28.5 32.953125 "/>
<path style=" stroke:none;fill-rule:nonzero;fill:rgb(94.901961%,41.568628%,41.176471%);fill-opacity:1;" d="M 4.132812 5.363281 L 7.441406 6.683594 C 8.050781 6.925781 8.347656 7.617188 8.101562 8.226562 C 7.859375 8.835938 7.167969 9.132812 6.558594 8.886719 L 3.25 7.566406 C 2.640625 7.324219 2.34375 6.632812 2.585938 6.023438 C 2.832031 5.417969 3.523438 5.121094 4.132812 5.363281 Z M 4.132812 5.363281 "/>
<path style=" stroke:none;fill-rule:nonzero;fill:rgb(38.431373%,73.725492%,85.882354%);fill-opacity:1;" d="M 34.605469 17.105469 L 34.296875 17.8125 L 33.773438 19 L 32.429688 21.96875 L 31.90625 23.15625 L 30.757812 25.667969 C 30.46875 26.308594 29.832031 26.71875 29.128906 26.71875 L 14.078125 26.71875 C 13.160156 26.722656 12.390625 26.03125 12.296875 25.121094 L 11.976562 22.035156 L 11.855469 20.847656 L 11.488281 17.21875 L 11.363281 16.03125 L 10.996094 12.46875 L 14.601562 12.8125 L 15.789062 12.933594 L 18.941406 13.234375 L 20.128906 13.347656 L 24.390625 13.757812 L 25.578125 13.875 L 28.703125 14.171875 L 29.890625 14.292969 L 33.125 14.601562 C 33.703125 14.648438 34.21875 14.972656 34.511719 15.46875 C 34.808594 15.96875 34.839844 16.578125 34.605469 17.105469 Z M 34.605469 17.105469 "/>
<path style=" stroke:none;fill-rule:nonzero;fill:rgb(0%,0%,0%);fill-opacity:1;" d="M 17.148438 26.71875 L 15.960938 26.71875 L 15.519531 22.222656 L 15.402344 21.03125 L 15.058594 17.515625 L 14.945312 16.308594 L 14.601562 12.8125 L 15.804688 12.933594 L 16.144531 16.40625 L 16.261719 17.605469 L 16.601562 21.089844 L 16.714844 22.289062 Z M 17.148438 26.71875 "/>
<path style=" stroke:none;fill-rule:nonzero;fill:rgb(0%,0%,0%);fill-opacity:1;" d="M 21.183594 26.71875 L 19.992188 26.71875 L 19.664062 22.449219 L 19.570312 21.25 L 19.308594 17.84375 L 19.21875 16.636719 L 18.957031 13.234375 L 20.15625 13.347656 L 20.417969 16.730469 L 20.507812 17.929688 L 20.769531 21.316406 L 20.863281 22.515625 Z M 21.183594 26.71875 "/>
<path style=" stroke:none;fill-rule:nonzero;fill:rgb(0%,0%,0%);fill-opacity:1;" d="M 29.917969 14.292969 L 29.609375 17.4375 L 29.496094 18.621094 L 29.195312 21.765625 L 29.074219 22.953125 L 28.714844 26.71875 L 27.519531 26.71875 L 27.894531 22.890625 L 28.007812 21.707031 L 28.316406 18.53125 L 28.429688 17.34375 L 28.730469 14.171875 L 28.738281 14.171875 Z M 29.917969 14.292969 "/>
<path style=" stroke:none;fill-rule:nonzero;fill:rgb(0%,0%,0%);fill-opacity:1;" d="M 25.609375 13.875 L 25.371094 17.113281 L 25.28125 18.300781 L 25.050781 21.546875 L 24.960938 22.734375 L 24.671875 26.71875 L 23.484375 26.71875 L 23.773438 22.667969 L 23.863281 21.480469 L 24.101562 18.210938 L 24.183594 17.015625 L 24.421875 13.757812 Z M 25.609375 13.875 "/>
<path style=" stroke:none;fill-rule:nonzero;fill:rgb(0%,0%,0%);fill-opacity:1;" d="M 34.296875 17.792969 L 33.773438 18.953125 L 29.496094 18.621094 L 28.316406 18.53125 L 25.28125 18.300781 L 24.101562 18.210938 L 20.507812 17.929688 L 19.308594 17.84375 L 16.261719 17.605469 L 15.058594 17.515625 L 11.488281 17.242188 L 11.363281 16.039062 L 14.945312 16.308594 L 16.144531 16.40625 L 19.21875 16.636719 L 20.417969 16.730469 L 24.183594 17.015625 L 25.371094 17.113281 L 28.429688 17.34375 L 29.609375 17.4375 Z M 34.296875 17.792969 "/>
<path style=" stroke:none;fill-rule:nonzero;fill:rgb(0%,0%,0%);fill-opacity:1;" d="M 32.429688 21.945312 L 31.90625 23.109375 L 29.074219 22.953125 L 27.894531 22.890625 L 24.960938 22.734375 L 23.773438 22.667969 L 20.863281 22.515625 L 19.664062 22.449219 L 16.714844 22.289062 L 15.519531 22.222656 L 11.980469 22.035156 L 11.863281 20.839844 L 15.402344 21.03125 L 16.601562 21.089844 L 19.570312 21.25 L 20.769531 21.316406 L 23.863281 21.480469 L 25.050781 21.546875 L 28.007812 21.707031 L 29.195312 21.765625 Z M 32.429688 21.945312 "/>
<path style=" stroke:none;fill-rule:nonzero;fill:rgb(0%,0%,0%);fill-opacity:1;" d="M 29.09375 30.28125 L 11.578125 30.28125 C 10.429688 30.28125 9.5 29.351562 9.5 28.203125 C 9.5 28.0625 9.511719 27.925781 9.542969 27.789062 C 9.605469 27.460938 9.925781 27.246094 10.253906 27.3125 C 10.582031 27.378906 10.792969 27.695312 10.730469 28.023438 C 10.722656 28.085938 10.722656 28.144531 10.730469 28.203125 C 10.730469 28.679688 11.101562 29.070312 11.578125 29.09375 L 29.09375 29.09375 C 29.421875 29.09375 29.6875 29.359375 29.6875 29.6875 C 29.6875 30.015625 29.421875 30.28125 29.09375 30.28125 Z M 29.09375 30.28125 "/>
</g>
</svg>
