<?xml version="1.0" encoding="UTF-8"?>
<svg xmlns="http://www.w3.org/2000/svg" xmlns:xlink="http://www.w3.org/1999/xlink" width="34px" height="34px" viewBox="0 0 34 34" version="1.1">
<g id="surface1">
<path style=" stroke:none;fill-rule:nonzero;fill:rgb(83.137256%,89.803922%,62.7451%);fill-opacity:1;" d="M 27.519531 2.4375 L 6.480469 2.4375 C 5.5625 2.4375 4.824219 3.171875 4.824219 4.089844 L 4.824219 31.792969 C 4.824219 32.714844 5.5625 33.449219 6.480469 33.449219 L 27.570312 33.449219 C 28.484375 33.449219 29.222656 32.714844 29.222656 31.792969 L 29.222656 4.089844 C 29.175781 3.171875 28.4375 2.4375 27.519531 2.4375 Z M 27.519531 2.4375 "/>
<path style=" stroke:none;fill-rule:nonzero;fill:rgb(96.078432%,57.647061%,22.352941%);fill-opacity:1;" d="M 27.519531 2.4375 L 25.683594 2.4375 L 25.683594 33.449219 L 27.519531 33.449219 C 28.4375 33.449219 29.175781 32.714844 29.175781 31.792969 L 29.175781 4.089844 C 29.175781 3.171875 28.4375 2.4375 27.519531 2.4375 Z M 27.519531 2.4375 "/>
<path style=" stroke:none;fill-rule:nonzero;fill:rgb(88.627452%,41.960785%,14.901961%);fill-opacity:1;" d="M 21.273438 4.273438 L 12.726562 4.273438 C 12.175781 4.273438 11.761719 3.8125 11.761719 3.308594 L 11.761719 1.5625 C 11.761719 1.011719 12.222656 0.597656 12.726562 0.597656 L 21.320312 0.597656 C 21.867188 0.597656 22.285156 1.054688 22.285156 1.5625 L 22.285156 3.261719 C 22.285156 3.8125 21.824219 4.273438 21.273438 4.273438 Z M 21.273438 4.273438 "/>
<path style=" stroke:none;fill-rule:nonzero;fill:rgb(96.078432%,57.647061%,22.352941%);fill-opacity:1;" d="M 21.273438 0.597656 L 18.792969 0.597656 L 18.792969 4.273438 L 21.273438 4.273438 C 21.824219 4.273438 22.238281 3.8125 22.238281 3.308594 L 22.238281 1.5625 C 22.285156 1.011719 21.824219 0.597656 21.273438 0.597656 Z M 21.273438 0.597656 "/>
<path style=" stroke:none;fill-rule:nonzero;fill:rgb(52.156866%,79.607844%,90.196079%);fill-opacity:1;" d="M 10.839844 11.535156 L 8.636719 11.535156 C 8.179688 11.535156 7.8125 11.164062 7.8125 10.707031 L 7.8125 8.5 C 7.8125 8.042969 8.179688 7.671875 8.636719 7.671875 L 10.839844 7.671875 C 11.304688 7.671875 11.671875 8.042969 11.671875 8.5 L 11.671875 10.707031 C 11.671875 11.164062 11.304688 11.535156 10.839844 11.535156 Z M 10.839844 19.847656 L 8.636719 19.847656 C 8.179688 19.847656 7.8125 19.480469 7.8125 19.019531 L 7.8125 16.816406 C 7.8125 16.355469 8.179688 15.988281 8.636719 15.988281 L 10.839844 15.988281 C 11.304688 15.988281 11.671875 16.355469 11.671875 16.816406 L 11.671875 19.019531 C 11.671875 19.480469 11.304688 19.847656 10.839844 19.847656 Z M 10.839844 28.164062 L 8.636719 28.164062 C 8.179688 28.164062 7.8125 27.796875 7.8125 27.339844 L 7.8125 25.132812 C 7.8125 24.671875 8.179688 24.304688 8.636719 24.304688 L 10.839844 24.304688 C 11.304688 24.304688 11.671875 24.671875 11.671875 25.132812 L 11.671875 27.339844 C 11.671875 27.796875 11.304688 28.164062 10.839844 28.164062 Z M 10.839844 28.164062 "/>
<path style=" stroke:none;fill-rule:nonzero;fill:rgb(21.568628%,41.568628%,50.588238%);fill-opacity:1;" d="M 20.8125 11.394531 L 15.4375 11.394531 C 15.160156 11.394531 14.929688 11.164062 14.929688 10.890625 C 14.929688 10.613281 15.160156 10.382812 15.4375 10.382812 L 20.8125 10.382812 C 21.089844 10.382812 21.320312 10.613281 21.320312 10.890625 C 21.320312 11.164062 21.089844 11.394531 20.8125 11.394531 Z M 26.1875 8.820312 L 15.4375 8.820312 C 15.160156 8.820312 14.929688 8.589844 14.929688 8.316406 C 14.929688 8.042969 15.160156 7.8125 15.4375 7.8125 L 26.1875 7.8125 C 26.464844 7.8125 26.695312 8.042969 26.695312 8.316406 C 26.695312 8.636719 26.464844 8.820312 26.1875 8.820312 Z M 20.8125 19.664062 L 15.4375 19.664062 C 15.160156 19.664062 14.929688 19.4375 14.929688 19.160156 C 14.929688 18.882812 15.160156 18.652344 15.4375 18.652344 L 20.8125 18.652344 C 21.089844 18.652344 21.320312 18.882812 21.320312 19.160156 C 21.320312 19.480469 21.089844 19.664062 20.8125 19.664062 Z M 26.1875 17.136719 L 15.4375 17.136719 C 15.160156 17.136719 14.929688 16.910156 14.929688 16.632812 C 14.929688 16.355469 15.160156 16.125 15.4375 16.125 L 26.1875 16.125 C 26.464844 16.125 26.695312 16.355469 26.695312 16.632812 C 26.695312 16.910156 26.464844 17.136719 26.1875 17.136719 Z M 20.8125 27.980469 L 15.4375 27.980469 C 15.160156 27.980469 14.929688 27.75 14.929688 27.476562 C 14.929688 27.199219 15.160156 26.972656 15.4375 26.972656 L 20.8125 26.972656 C 21.089844 26.972656 21.320312 27.199219 21.320312 27.476562 C 21.320312 27.75 21.089844 27.980469 20.8125 27.980469 Z M 26.1875 25.453125 L 15.4375 25.453125 C 15.160156 25.453125 14.929688 25.222656 14.929688 24.949219 C 14.929688 24.671875 15.160156 24.445312 15.4375 24.445312 L 26.1875 24.445312 C 26.464844 24.445312 26.695312 24.671875 26.695312 24.949219 C 26.695312 25.222656 26.464844 25.453125 26.1875 25.453125 Z M 26.1875 25.453125 "/>
</g>
</svg>
