<?xml version="1.0" encoding="UTF-8"?>
<svg xmlns="http://www.w3.org/2000/svg" xmlns:xlink="http://www.w3.org/1999/xlink" width="46px" height="46px" viewBox="0 0 46 46" version="1.1">
<g id="surface1">
<path style=" stroke:none;fill-rule:nonzero;fill:rgb(80.392158%,91.37255%,89.019608%);fill-opacity:1;" d="M 29.445312 12.570312 C 28.59375 12.570312 27.902344 13.261719 27.902344 14.113281 L 27.902344 16.472656 L 11.625 16.488281 L 11.625 14.128906 C 11.625 13.273438 12.316406 12.582031 13.171875 12.582031 L 13.253906 12.570312 Z M 29.445312 12.570312 "/>
<path style=" stroke:none;fill-rule:nonzero;fill:rgb(80.392158%,91.37255%,89.019608%);fill-opacity:1;" d="M 16.429688 34.058594 C 15.574219 34.058594 14.882812 33.367188 14.882812 32.515625 L 14.882812 14.117188 C 14.882812 13.265625 14.191406 12.574219 13.335938 12.574219 L 29.613281 12.574219 C 30.464844 12.574219 31.15625 13.265625 31.15625 14.117188 L 31.15625 30.15625 "/>
<path style=" stroke:none;fill-rule:nonzero;fill:rgb(80.392158%,91.37255%,89.019608%);fill-opacity:1;" d="M 16.589844 34.058594 C 17.441406 34.058594 18.136719 33.367188 18.136719 32.515625 L 18.136719 30.15625 L 34.410156 30.15625 L 34.410156 32.515625 C 34.410156 33.367188 33.71875 34.058594 32.863281 34.058594 Z M 16.589844 34.058594 "/>
<path style=" stroke:none;fill-rule:nonzero;fill:rgb(12.941177%,12.156863%,11.764706%);fill-opacity:1;" d="M 27.578125 16.476562 L 18.464844 16.476562 C 18.285156 16.476562 18.140625 16.621094 18.140625 16.800781 C 18.140625 16.980469 18.285156 17.125 18.464844 17.125 L 27.578125 17.125 C 27.757812 17.125 27.902344 16.980469 27.902344 16.800781 C 27.902344 16.621094 27.757812 16.476562 27.578125 16.476562 Z M 27.578125 18.429688 L 18.464844 18.429688 C 18.285156 18.429688 18.140625 18.574219 18.140625 18.753906 C 18.140625 18.933594 18.285156 19.078125 18.464844 19.078125 L 27.578125 19.078125 C 27.757812 19.078125 27.902344 18.933594 27.902344 18.753906 C 27.902344 18.574219 27.757812 18.429688 27.578125 18.429688 Z M 27.578125 20.386719 L 18.464844 20.386719 C 18.285156 20.386719 18.140625 20.527344 18.140625 20.707031 C 18.140625 20.886719 18.285156 21.03125 18.464844 21.03125 L 27.578125 21.03125 C 27.757812 21.03125 27.902344 20.886719 27.902344 20.707031 C 27.902344 20.527344 27.757812 20.386719 27.578125 20.386719 Z M 27.578125 22.335938 L 18.464844 22.335938 C 18.285156 22.335938 18.140625 22.480469 18.140625 22.660156 C 18.140625 22.839844 18.285156 22.980469 18.464844 22.980469 L 27.578125 22.980469 C 27.757812 22.980469 27.902344 22.839844 27.902344 22.660156 C 27.902344 22.484375 27.757812 22.335938 27.578125 22.335938 Z M 27.578125 24.289062 L 18.464844 24.289062 C 18.285156 24.289062 18.140625 24.433594 18.140625 24.613281 C 18.140625 24.792969 18.285156 24.9375 18.464844 24.9375 L 27.578125 24.9375 C 27.757812 24.9375 27.902344 24.792969 27.902344 24.613281 C 27.902344 24.4375 27.757812 24.289062 27.578125 24.289062 Z M 27.578125 26.242188 L 18.464844 26.242188 C 18.285156 26.242188 18.140625 26.386719 18.140625 26.566406 C 18.140625 26.746094 18.285156 26.890625 18.464844 26.890625 L 27.578125 26.890625 C 27.757812 26.890625 27.902344 26.746094 27.902344 26.566406 C 27.902344 26.386719 27.757812 26.242188 27.578125 26.242188 Z M 27.578125 26.242188 "/>
<path style=" stroke:none;fill-rule:nonzero;fill:rgb(12.941177%,12.156863%,11.764706%);fill-opacity:1;" d="M 34.410156 29.5 L 31.804688 29.5 L 31.804688 14.117188 C 31.804688 12.90625 30.820312 11.921875 29.609375 11.921875 L 13.097656 11.921875 C 11.914062 11.953125 10.96875 12.941406 10.96875 14.132812 L 10.96875 16.492188 C 10.96875 16.660156 11.039062 16.828125 11.160156 16.953125 C 11.28125 17.074219 11.445312 17.140625 11.617188 17.140625 L 14.222656 17.140625 L 14.222656 32.515625 C 14.222656 33.726562 15.207031 34.710938 16.417969 34.710938 C 16.445312 34.710938 16.472656 34.707031 16.5 34.703125 C 16.527344 34.707031 16.554688 34.710938 16.582031 34.710938 L 32.859375 34.710938 C 34.074219 34.710938 35.058594 33.726562 35.058594 32.515625 L 35.058594 30.15625 C 35.0625 29.792969 34.773438 29.5 34.410156 29.5 Z M 12.277344 15.839844 L 12.277344 14.132812 C 12.277344 13.152344 13.304688 13.226562 13.304688 13.226562 L 13.335938 13.226562 C 13.832031 13.226562 14.230469 13.625 14.230469 14.117188 L 14.230469 15.839844 Z M 17.484375 30.152344 L 17.484375 32.511719 C 17.484375 33.003906 17.082031 33.402344 16.589844 33.402344 C 16.5625 33.402344 16.535156 33.410156 16.507812 33.414062 C 16.480469 33.410156 16.453125 33.402344 16.429688 33.402344 C 15.933594 33.402344 15.535156 33.003906 15.535156 32.511719 L 15.535156 14.117188 C 15.535156 13.800781 15.464844 13.5 15.34375 13.226562 L 29.613281 13.226562 C 30.105469 13.226562 30.507812 13.625 30.507812 14.117188 L 30.507812 29.503906 L 18.136719 29.503906 C 17.777344 29.5 17.484375 29.792969 17.484375 30.152344 Z M 33.757812 32.515625 C 33.757812 33.007812 33.359375 33.410156 32.863281 33.410156 L 18.59375 33.410156 C 18.714844 33.132812 18.78125 32.832031 18.78125 32.515625 L 18.78125 30.808594 L 33.757812 30.808594 Z M 33.757812 32.515625 "/>
</g>
</svg>
