<?xml version="1.0" encoding="UTF-8"?>
<svg xmlns="http://www.w3.org/2000/svg" xmlns:xlink="http://www.w3.org/1999/xlink" width="34px" height="34px" viewBox="0 0 34 34" version="1.1">
<g id="surface1">
<path style=" stroke:none;fill-rule:nonzero;fill:rgb(16.862746%,18.039216%,38.82353%);fill-opacity:1;" d="M 4.410156 30.070312 L 3.132812 30.070312 L 3.132812 26.722656 L 4.410156 26.722656 Z M 4.410156 22.472656 L 3.132812 22.472656 L 3.132812 19.125 L 4.410156 19.125 Z M 30.867188 31.929688 C 30.867188 32.511719 30.386719 32.9375 29.855469 32.9375 L 10.785156 32.9375 L 10.785156 1.007812 L 29.855469 1.007812 C 30.441406 1.007812 30.867188 1.488281 30.867188 2.019531 Z M 29.855469 0 L 6.480469 0 C 5.367188 0 4.410156 0.902344 4.410156 2.070312 L 4.410156 2.867188 L 2.601562 2.867188 C 2.335938 2.867188 2.070312 3.082031 2.070312 3.398438 L 2.070312 7.808594 C 2.070312 8.074219 2.285156 8.339844 2.601562 8.339844 L 4.410156 8.339844 L 4.410156 10.519531 L 2.601562 10.519531 C 2.335938 10.519531 2.070312 10.730469 2.070312 11.050781 L 2.070312 15.40625 C 2.070312 15.671875 2.285156 15.9375 2.601562 15.9375 L 4.410156 15.9375 L 4.410156 18.0625 L 2.601562 18.0625 C 2.335938 18.0625 2.070312 18.273438 2.070312 18.59375 L 2.070312 23.003906 C 2.070312 23.269531 2.285156 23.535156 2.601562 23.535156 L 4.410156 23.535156 L 4.410156 25.710938 L 2.601562 25.710938 C 2.335938 25.710938 2.070312 25.925781 2.070312 26.242188 L 2.070312 30.652344 C 2.070312 30.917969 2.285156 31.183594 2.601562 31.183594 L 4.410156 31.183594 L 4.410156 32.035156 C 4.410156 33.148438 5.3125 34.105469 6.480469 34.105469 L 29.855469 34.105469 C 30.972656 34.105469 31.929688 33.203125 31.929688 32.035156 L 31.929688 2.070312 C 31.929688 0.902344 30.972656 0 29.855469 0 Z M 4.410156 14.875 L 3.132812 14.875 L 3.132812 11.476562 L 4.410156 11.476562 Z M 4.410156 7.277344 L 3.132812 7.277344 L 3.132812 3.929688 L 4.410156 3.929688 Z M 9.722656 32.992188 L 6.480469 32.992188 C 5.898438 32.992188 5.472656 32.511719 5.472656 31.980469 L 5.472656 2.070312 C 5.472656 1.488281 5.949219 1.0625 6.480469 1.0625 L 9.722656 1.0625 Z M 9.722656 32.992188 "/>
<path style=" stroke:none;fill-rule:nonzero;fill:rgb(94.901961%,43.137255%,38.039216%);fill-opacity:1;" d="M 3.132812 3.929688 L 4.460938 3.929688 L 4.460938 7.277344 L 3.132812 7.277344 Z M 3.132812 3.929688 "/>
<path style=" stroke:none;fill-rule:nonzero;fill:rgb(31.764707%,74.901962%,62.352943%);fill-opacity:1;" d="M 25.339844 22.101562 L 16.308594 22.101562 C 16.46875 19.976562 18.433594 18.273438 20.824219 18.273438 C 23.214844 18.222656 25.179688 19.921875 25.339844 22.101562 Z M 25.339844 22.101562 "/>
<path style=" stroke:none;fill-rule:nonzero;fill:rgb(94.901961%,43.137255%,38.039216%);fill-opacity:1;" d="M 3.132812 11.527344 L 4.460938 11.527344 L 4.460938 14.875 L 3.132812 14.875 Z M 3.132812 19.125 L 4.460938 19.125 L 4.460938 22.472656 L 3.132812 22.472656 Z M 3.132812 26.722656 L 4.460938 26.722656 L 4.460938 30.070312 L 3.132812 30.070312 Z M 9.722656 1.007812 L 9.722656 32.9375 L 6.480469 32.9375 C 5.898438 32.9375 5.472656 32.460938 5.472656 31.929688 L 5.472656 2.070312 C 5.472656 1.488281 5.949219 1.0625 6.480469 1.0625 L 9.722656 1.0625 Z M 9.722656 1.007812 "/>
<path style=" stroke:none;fill-rule:nonzero;fill:rgb(84.313726%,91.37255%,94.901961%);fill-opacity:1;" d="M 29.855469 1.007812 L 10.785156 1.007812 L 10.785156 32.9375 L 29.855469 32.9375 C 30.441406 32.9375 30.867188 32.460938 30.867188 31.929688 L 30.867188 2.070312 C 30.867188 1.488281 30.386719 1.007812 29.855469 1.007812 Z M 20.824219 10.890625 C 22.3125 10.890625 23.585938 12.113281 23.585938 13.601562 C 23.585938 15.085938 22.367188 16.308594 20.824219 16.308594 C 19.285156 16.308594 18.0625 15.140625 18.0625 13.601562 C 18.0625 12.058594 19.335938 10.890625 20.824219 10.890625 Z M 26.351562 22.632812 C 26.351562 22.898438 26.085938 23.109375 25.820312 23.109375 L 15.777344 23.109375 C 15.511719 23.109375 15.300781 22.898438 15.246094 22.632812 L 15.246094 22.3125 C 15.246094 19.496094 17.742188 17.210938 20.773438 17.210938 C 23.800781 17.210938 26.296875 19.496094 26.296875 22.3125 C 26.351562 22.417969 26.351562 22.523438 26.351562 22.632812 Z M 26.351562 22.632812 "/>
<path style=" stroke:none;fill-rule:nonzero;fill:rgb(88.235295%,36.862746%,35.294119%);fill-opacity:1;" d="M 6.269531 2.070312 L 6.269531 31.929688 C 6.269531 32.035156 6.375 32.140625 6.480469 32.140625 L 9.722656 32.140625 L 9.722656 32.9375 L 6.480469 32.9375 C 5.898438 32.9375 5.472656 32.460938 5.472656 31.929688 L 5.472656 2.070312 C 5.472656 1.488281 5.949219 1.0625 6.480469 1.0625 L 9.722656 1.0625 L 9.722656 1.859375 L 6.480469 1.859375 C 6.375 1.804688 6.269531 1.914062 6.269531 2.070312 Z M 6.269531 2.070312 "/>
<path style=" stroke:none;fill-rule:nonzero;fill:rgb(62.7451%,76.47059%,84.705883%);fill-opacity:1;" d="M 30.867188 2.070312 L 30.867188 31.929688 C 30.867188 32.511719 30.386719 32.9375 29.855469 32.9375 L 10.785156 32.9375 L 10.785156 32.140625 L 29.855469 32.140625 C 29.960938 32.140625 30.070312 32.035156 30.070312 31.929688 L 30.070312 2.070312 C 30.070312 1.964844 29.960938 1.859375 29.855469 1.859375 L 10.785156 1.859375 L 10.785156 1.007812 L 29.855469 1.007812 C 30.386719 1.007812 30.867188 1.488281 30.867188 2.070312 Z M 30.867188 2.070312 "/>
<path style=" stroke:none;fill-rule:nonzero;fill:rgb(16.862746%,18.039216%,38.82353%);fill-opacity:1;" d="M 20.824219 17.210938 C 17.742188 17.210938 15.300781 19.496094 15.300781 22.3125 L 15.300781 22.632812 C 15.300781 22.898438 15.566406 23.109375 15.832031 23.109375 L 25.871094 23.109375 C 26.136719 23.109375 26.351562 22.898438 26.402344 22.632812 L 26.402344 22.3125 C 26.351562 19.496094 23.90625 17.210938 20.824219 17.210938 Z M 16.308594 22.101562 C 16.46875 19.976562 18.433594 18.273438 20.824219 18.273438 C 23.214844 18.273438 25.179688 19.976562 25.339844 22.101562 Z M 20.824219 10.890625 C 19.335938 10.890625 18.0625 12.113281 18.0625 13.601562 C 18.0625 15.085938 19.285156 16.308594 20.824219 16.308594 C 22.367188 16.308594 23.585938 15.085938 23.585938 13.601562 C 23.585938 12.113281 22.3125 10.890625 20.824219 10.890625 Z M 20.824219 15.351562 C 19.867188 15.351562 19.125 14.609375 19.125 13.652344 C 19.125 12.695312 19.867188 11.953125 20.824219 11.953125 C 21.78125 11.953125 22.523438 12.695312 22.523438 13.652344 C 22.523438 14.609375 21.78125 15.351562 20.824219 15.351562 Z M 20.824219 15.351562 "/>
<path style=" stroke:none;fill-rule:nonzero;fill:rgb(100%,89.803922%,67.058825%);fill-opacity:1;" d="M 22.523438 13.601562 C 22.523438 12.660156 21.765625 11.898438 20.824219 11.898438 C 19.886719 11.898438 19.125 12.660156 19.125 13.601562 C 19.125 14.539062 19.886719 15.300781 20.824219 15.300781 C 21.765625 15.300781 22.523438 14.539062 22.523438 13.601562 Z M 22.523438 13.601562 "/>
<path style=" stroke:none;fill-rule:nonzero;fill:rgb(23.921569%,64.705884%,50.196081%);fill-opacity:1;" d="M 20.824219 18.222656 C 18.433594 18.222656 16.46875 19.921875 16.308594 22.046875 L 25.339844 22.046875 C 25.179688 19.921875 23.214844 18.222656 20.824219 18.222656 Z M 20.824219 18.753906 C 22.738281 18.753906 24.332031 19.921875 24.703125 21.515625 L 16.945312 21.515625 C 17.320312 19.921875 18.914062 18.753906 20.824219 18.753906 Z M 20.824219 18.753906 "/>
<path style=" stroke:none;fill-rule:nonzero;fill:rgb(94.117647%,82.745099%,60.392159%);fill-opacity:1;" d="M 20.824219 11.898438 C 19.867188 11.898438 19.125 12.644531 19.125 13.601562 C 19.125 14.554688 19.867188 15.300781 20.824219 15.300781 C 21.78125 15.300781 22.523438 14.554688 22.523438 13.601562 C 22.523438 12.644531 21.78125 11.898438 20.824219 11.898438 Z M 20.824219 14.820312 C 20.1875 14.820312 19.65625 14.289062 19.65625 13.652344 C 19.65625 13.015625 20.1875 12.484375 20.824219 12.484375 C 21.460938 12.484375 21.992188 13.015625 21.992188 13.652344 C 21.992188 14.289062 21.460938 14.820312 20.824219 14.820312 Z M 20.824219 14.820312 "/>
</g>
</svg>
