<?xml version="1.0" encoding="UTF-8"?>
<svg xmlns="http://www.w3.org/2000/svg" xmlns:xlink="http://www.w3.org/1999/xlink" width="36px" height="36px" viewBox="0 0 36 36" version="1.1">
<g id="surface1">
<path style=" stroke:none;fill-rule:nonzero;fill:rgb(98.039216%,63.921571%,2.745098%);fill-opacity:1;" d="M 29.109375 5.339844 L 27.609375 2.738281 C 27.332031 2.261719 26.71875 2.097656 26.242188 2.375 L 2.859375 15.875 C 2.382812 16.148438 2.21875 16.761719 2.492188 17.238281 L 3.992188 19.835938 C 5.15625 19.152344 6.59375 19.144531 7.761719 19.816406 C 8.933594 20.484375 9.652344 21.730469 9.648438 23.078125 C 9.644531 24.425781 8.917969 25.667969 7.742188 26.332031 L 8.992188 28.496094 C 9.40625 29.214844 10.324219 29.460938 11.042969 29.046875 L 33.558594 16.046875 C 34.277344 15.632812 34.523438 14.714844 34.109375 13.996094 L 32.855469 11.832031 C 31.0625 12.867188 28.769531 12.253906 27.734375 10.460938 C 26.699219 8.667969 27.3125 6.375 29.109375 5.339844 Z M 29.109375 5.339844 "/>
<path style=" stroke:none;fill-rule:nonzero;fill:rgb(100%,81.960785%,0%);fill-opacity:1;" d="M 34.3125 20.25 L 34.3125 16.875 C 34.3125 16.253906 33.808594 15.75 33.1875 15.75 L 2.8125 15.75 C 2.191406 15.75 1.6875 16.253906 1.6875 16.875 L 1.6875 20.25 C 4.015625 20.25 5.90625 22.140625 5.90625 24.46875 C 5.90625 26.796875 4.015625 28.6875 1.6875 28.6875 L 1.6875 31.5 C 1.6875 32.433594 2.441406 33.1875 3.375 33.1875 L 32.625 33.1875 C 33.558594 33.1875 34.3125 32.433594 34.3125 31.5 L 34.3125 28.6875 C 31.984375 28.6875 30.09375 26.796875 30.09375 24.46875 C 30.09375 22.140625 31.984375 20.25 34.3125 20.25 Z M 34.3125 20.25 "/>
<path style=" stroke:none;fill-rule:nonzero;fill:rgb(100%,100%,100%);fill-opacity:1;" d="M 20.8125 21.375 C 20.8125 20.441406 20.058594 19.6875 19.125 19.6875 C 18.191406 19.6875 17.4375 20.441406 17.4375 21.375 C 17.4375 22.308594 18.191406 23.0625 19.125 23.0625 C 20.058594 23.0625 20.8125 22.308594 20.8125 21.375 Z M 20.8125 21.375 "/>
<path style=" stroke:none;fill-rule:nonzero;fill:rgb(100%,100%,100%);fill-opacity:1;" d="M 27.5625 28.125 C 27.5625 27.191406 26.808594 26.4375 25.875 26.4375 C 24.941406 26.4375 24.1875 27.191406 24.1875 28.125 C 24.1875 29.058594 24.941406 29.8125 25.875 29.8125 C 26.808594 29.8125 27.5625 29.058594 27.5625 28.125 Z M 27.5625 28.125 "/>
<path style=" stroke:none;fill-rule:nonzero;fill:rgb(100%,100%,100%);fill-opacity:1;" d="M 18.28125 28.96875 C 18.058594 28.746094 17.933594 28.441406 17.933594 28.125 C 17.933594 27.8125 18.0625 27.507812 18.285156 27.285156 L 25.078125 20.578125 C 25.519531 20.152344 26.222656 20.160156 26.65625 20.59375 C 27.089844 21.027344 27.097656 21.730469 26.671875 22.171875 L 19.964844 28.964844 C 19.742188 29.1875 19.4375 29.316406 19.125 29.316406 C 18.808594 29.316406 18.503906 29.191406 18.28125 28.96875 Z M 18.28125 28.96875 "/>
<path style=" stroke:none;fill-rule:nonzero;fill:rgb(11.764706%,7.058824%,4.313726%);fill-opacity:1;" d="M 12.9375 29.25 C 13.25 29.25 13.5 29 13.5 28.6875 L 13.5 25.875 C 13.5 25.5625 13.25 25.3125 12.9375 25.3125 C 12.625 25.3125 12.375 25.5625 12.375 25.875 L 12.375 28.6875 C 12.375 29 12.625 29.25 12.9375 29.25 Z M 12.9375 23.625 C 13.25 23.625 13.5 23.375 13.5 23.0625 L 13.5 20.25 C 13.5 19.9375 13.25 19.6875 12.9375 19.6875 C 12.625 19.6875 12.375 19.9375 12.375 20.25 L 12.375 23.0625 C 12.375 23.375 12.625 23.625 12.9375 23.625 Z M 12.9375 23.625 "/>
<path style=" stroke:none;fill-rule:nonzero;fill:rgb(11.764706%,7.058824%,4.313726%);fill-opacity:1;" d="M 3.375 33.75 L 32.625 33.75 C 33.867188 33.75 34.875 32.742188 34.875 31.5 L 34.875 28.6875 C 34.875 28.375 34.625 28.125 34.3125 28.125 C 32.292969 28.125 30.65625 26.488281 30.65625 24.46875 C 30.65625 22.449219 32.292969 20.8125 34.3125 20.8125 C 34.625 20.8125 34.875 20.5625 34.875 20.25 L 34.875 16.875 C 34.875 16.507812 34.753906 16.152344 34.53125 15.863281 C 34.957031 15.214844 34.984375 14.382812 34.59375 13.714844 L 33.34375 11.550781 C 33.191406 11.28125 32.847656 11.191406 32.578125 11.34375 C 31.050781 12.226562 29.101562 11.703125 28.222656 10.179688 C 27.34375 8.65625 27.863281 6.707031 29.390625 5.824219 C 29.65625 5.667969 29.75 5.324219 29.59375 5.058594 L 28.09375 2.460938 C 27.660156 1.714844 26.707031 1.460938 25.960938 1.886719 L 2.925781 15.1875 L 2.8125 15.1875 C 1.878906 15.1875 1.125 15.941406 1.125 16.875 L 1.125 20.25 C 1.125 20.5625 1.375 20.8125 1.6875 20.8125 C 3.707031 20.8125 5.34375 22.449219 5.34375 24.46875 C 5.34375 26.488281 3.707031 28.125 1.6875 28.125 C 1.375 28.125 1.125 28.375 1.125 28.6875 L 1.125 31.5 C 1.125 32.742188 2.132812 33.75 3.375 33.75 Z M 26.523438 2.859375 C 26.730469 2.742188 27 2.8125 27.121094 3.019531 L 28.359375 5.164062 C 26.640625 6.480469 26.167969 8.867188 27.25 10.742188 C 28.332031 12.613281 30.632812 13.398438 32.632812 12.570312 L 33.621094 14.277344 C 33.792969 14.578125 33.78125 14.953125 33.59375 15.242188 C 33.460938 15.207031 33.324219 15.1875 33.1875 15.1875 L 5.175781 15.1875 Z M 2.25 29.21875 C 4.65625 28.933594 6.46875 26.890625 6.46875 24.46875 C 6.46875 22.046875 4.65625 20.003906 2.25 19.71875 L 2.25 16.875 C 2.25 16.5625 2.5 16.3125 2.8125 16.3125 L 12.375 16.3125 L 12.375 17.4375 C 12.375 17.75 12.625 18 12.9375 18 C 13.25 18 13.5 17.75 13.5 17.4375 L 13.5 16.3125 L 33.1875 16.3125 C 33.5 16.3125 33.75 16.5625 33.75 16.875 L 33.75 19.71875 C 31.34375 20.003906 29.53125 22.046875 29.53125 24.46875 C 29.53125 26.890625 31.34375 28.933594 33.75 29.21875 L 33.75 31.5 C 33.75 32.121094 33.246094 32.625 32.625 32.625 L 13.5 32.625 L 13.5 31.5 C 13.5 31.1875 13.25 30.9375 12.9375 30.9375 C 12.625 30.9375 12.375 31.1875 12.375 31.5 L 12.375 32.625 L 3.375 32.625 C 2.753906 32.625 2.25 32.121094 2.25 31.5 Z M 2.25 29.21875 "/>
<path style=" stroke:none;fill-rule:nonzero;fill:rgb(11.764706%,7.058824%,4.313726%);fill-opacity:1;" d="M 19.125 23.625 C 20.367188 23.625 21.375 22.617188 21.375 21.375 C 21.375 20.132812 20.367188 19.125 19.125 19.125 C 17.882812 19.125 16.875 20.132812 16.875 21.375 C 16.875 22.617188 17.882812 23.625 19.125 23.625 Z M 19.125 20.25 C 19.746094 20.25 20.25 20.753906 20.25 21.375 C 20.25 21.996094 19.746094 22.5 19.125 22.5 C 18.503906 22.5 18 21.996094 18 21.375 C 18 20.753906 18.503906 20.25 19.125 20.25 Z M 25.875 25.875 C 24.632812 25.875 23.625 26.882812 23.625 28.125 C 23.625 29.367188 24.632812 30.375 25.875 30.375 C 27.117188 30.375 28.125 29.367188 28.125 28.125 C 28.125 26.882812 27.117188 25.875 25.875 25.875 Z M 25.875 29.25 C 25.253906 29.25 24.75 28.746094 24.75 28.125 C 24.75 27.503906 25.253906 27 25.875 27 C 26.496094 27 27 27.503906 27 28.125 C 27 28.746094 26.496094 29.25 25.875 29.25 Z M 17.371094 28.125 C 17.371094 28.835938 17.796875 29.472656 18.453125 29.746094 C 19.109375 30.015625 19.863281 29.863281 20.363281 29.359375 L 27.066406 22.570312 C 27.71875 21.90625 27.71875 20.84375 27.066406 20.183594 C 26.398438 19.550781 25.351562 19.550781 24.683594 20.183594 L 17.890625 26.886719 C 17.558594 27.214844 17.371094 27.660156 17.371094 28.125 Z M 18.679688 27.6875 L 25.476562 20.976562 C 25.617188 20.824219 25.832031 20.761719 26.03125 20.8125 C 26.234375 20.863281 26.390625 21.019531 26.4375 21.222656 C 26.488281 21.421875 26.421875 21.636719 26.269531 21.773438 L 19.5625 28.566406 C 19.320312 28.8125 18.925781 28.8125 18.679688 28.570312 C 18.4375 28.324219 18.4375 27.929688 18.679688 27.6875 Z M 18.679688 27.6875 "/>
</g>
</svg>
